<svg width="51" height="51" viewBox="0 0 51 51" fill="none" xmlns="http://www.w3.org/2000/svg">
<path d="M49.3963 16.5949C49.7151 17.4615 49.4461 18.4277 48.7588 19.0453L44.4457 22.9699C44.5553 23.7967 44.6151 24.6434 44.6151 25.5C44.6151 26.3566 44.5553 27.2033 44.4457 28.0301L48.7588 31.9547C49.4461 32.5723 49.7151 33.5385 49.3963 34.4051C48.958 35.5904 48.4301 36.726 47.8225 37.8217L47.3543 38.6285C46.6969 39.7242 45.9598 40.7602 45.1529 41.7363C44.5652 42.4535 43.5891 42.6926 42.7125 42.4137L37.1643 40.6506C35.8295 41.6766 34.3553 42.5332 32.7815 43.1807L31.5363 48.8684C31.3371 49.7748 30.6399 50.492 29.7235 50.6414C28.3488 50.8705 26.9344 50.99 25.4901 50.99C24.0457 50.99 22.6313 50.8705 21.2567 50.6414C20.3402 50.492 19.643 49.7748 19.4438 48.8684L18.1986 43.1807C16.6248 42.5332 15.1506 41.6766 13.8158 40.6506L8.27755 42.4236C7.40099 42.7025 6.42482 42.4535 5.83712 41.7463C5.03029 40.7701 4.29318 39.7342 3.63576 38.6385L3.16759 37.8316C2.55997 36.7359 2.03204 35.6004 1.59376 34.415C1.27501 33.5484 1.54396 32.5822 2.23126 31.9646L6.54435 28.04C6.43478 27.2033 6.37501 26.3566 6.37501 25.5C6.37501 24.6434 6.43478 23.7967 6.54435 22.9699L2.23126 19.0453C1.54396 18.4277 1.27501 17.4615 1.59376 16.5949C2.03204 15.4096 2.55997 14.274 3.16759 13.1783L3.63576 12.3715C4.29318 11.2758 5.03029 10.2398 5.83712 9.26367C6.42482 8.54648 7.40099 8.30742 8.27755 8.58633L13.8258 10.3494C15.1606 9.32344 16.6348 8.4668 18.2086 7.81934L19.4537 2.13164C19.6529 1.2252 20.3502 0.508008 21.2666 0.358594C22.6412 0.119531 24.0557 0 25.5 0C26.9443 0 28.3588 0.119531 29.7334 0.348633C30.6498 0.498047 31.3471 1.21523 31.5463 2.12168L32.7914 7.80938C34.3652 8.45684 35.8395 9.31348 37.1742 10.3395L42.7225 8.57637C43.599 8.29746 44.5752 8.54648 45.1629 9.25371C45.9697 10.2299 46.7069 11.2658 47.3643 12.3615L47.8324 13.1684C48.4401 14.2641 48.968 15.3996 49.4063 16.585L49.3963 16.5949ZM25.5 33.4688C27.6135 33.4688 29.6403 32.6292 31.1348 31.1348C32.6292 29.6403 33.4688 27.6134 33.4688 25.5C33.4688 23.3866 32.6292 21.3597 31.1348 19.8652C29.6403 18.3708 27.6135 17.5312 25.5 17.5312C23.3866 17.5312 21.3597 18.3708 19.8653 19.8652C18.3708 21.3597 17.5313 23.3866 17.5313 25.5C17.5313 27.6134 18.3708 29.6403 19.8653 31.1348C21.3597 32.6292 23.3866 33.4688 25.5 33.4688Z" fill="#1F2F26" fill-opacity="0.7"/>
</svg>
