<svg width="58" height="51" viewBox="0 0 58 51" fill="none" xmlns="http://www.w3.org/2000/svg">
<g clip-path="url(#clip0_1_38)">
<path d="M41.6372 23.6572C38.7976 24.1354 35.7767 23.2986 33.5816 21.1271L29.7451 17.332C28.2347 15.8379 27.3889 13.8258 27.3889 11.7141V10.5088L19.3635 6.17578C18.8299 5.88691 18.4976 5.31914 18.5278 4.71152C18.558 4.10391 18.9205 3.56602 19.4844 3.31699L24.2372 1.2252C26.0899 0.418359 28.0938 0 30.1278 0H31.9503C35.6458 0 39.2003 1.39453 41.8889 3.89473L46.3799 8.07832C48.8167 10.3494 49.7229 13.6266 49.0583 16.6447L50.6493 18.2285L51.4549 17.4316C52.4014 16.4953 53.9319 16.4953 54.8684 17.4316L57.2851 19.8223C58.2316 20.7586 58.2316 22.2727 57.2851 23.199L48.424 31.9646C47.4774 32.901 45.9469 32.901 45.0104 31.9646L42.5938 29.574C41.6472 28.6377 41.6472 27.1236 42.5938 26.1973L43.3993 25.4004L41.6372 23.6572ZM2.75903 37.5627L26.2712 18.1887C26.6236 18.6768 27.0264 19.1449 27.4594 19.5832L31.2958 23.3783C31.9 23.976 32.5444 24.4939 33.2292 24.9422L13.5837 48.2707C12.1236 50.0039 9.95868 51 7.68299 51C3.43368 51 0 47.5934 0 43.3998C0 41.1486 1.01701 39.007 2.75903 37.5627Z" fill="#1F2F26" fill-opacity="0.65"/>
</g>
<defs>
<clipPath id="clip0_1_38">
<rect width="58" height="51" fill="white"/>
</clipPath>
</defs>
</svg>
