<svg width="57" height="51" viewBox="0 0 57 51" fill="none" xmlns="http://www.w3.org/2000/svg">
<g clip-path="url(#clip0_1_61)">
<path d="M53.8135 28.6477C55.4958 28.6477 56.9802 27.2531 56.9802 25.4502C57.0792 24.5537 56.6833 23.7568 55.8917 23.0596L50.6667 18.4277V6.375C50.6667 4.61191 49.2516 3.1875 47.5 3.1875H44.3333C42.5818 3.1875 41.1667 4.61191 41.1667 6.375V10.0307L30.6276 0.697266C30.0339 0.199219 29.2422 0 28.5495 0C27.8568 0 27.0651 0.0996094 26.3724 0.796875L0.989583 23.0596C0.296875 23.7568 0 24.5537 0 25.4502C0 27.2432 1.38542 28.6477 3.16667 28.6477H6.33333V35.5904C6.32344 35.6801 6.32344 35.7697 6.32344 35.8693V47.0156C6.32344 49.217 8.09479 51 10.2818 51H11.8651C11.9839 51 12.1026 50.99 12.2214 50.9801C12.3698 50.99 12.5182 51 12.6667 51H15.8333H18.2083C20.3953 51 22.1667 49.217 22.1667 47.0156V44.625V38.25C22.1667 36.4869 23.5818 35.0625 25.3333 35.0625H31.6667C33.4182 35.0625 34.8333 36.4869 34.8333 38.25V44.625V47.0156C34.8333 49.217 36.6047 51 38.7917 51H41.1667H44.3828C44.5214 51 44.6599 51 44.7984 50.99C44.9073 51 45.0161 51 45.125 51H46.7083C48.8953 51 50.6667 49.217 50.6667 47.0156V45.402C50.6964 45.143 50.7161 44.874 50.7161 44.5951L50.6469 28.6377H53.8135V28.6477Z" fill="#273A2F" fill-opacity="0.7"/>
</g>
<defs>
<clipPath id="clip0_1_61">
<rect width="57" height="51" fill="white"/>
</clipPath>
</defs>
</svg>
