<svg width="46" height="42" viewBox="0 0 46 42" fill="none" xmlns="http://www.w3.org/2000/svg">
<path d="M41.9891 20.8164C41.8528 20.8799 41.7237 20.9434 41.5875 21.0069C37.9585 22.7707 33.7056 25.5152 30.7939 28.3302C28.3053 27.8364 25.7449 27.5824 23.1703 27.5824C20.6027 27.5824 18.0352 27.8364 15.5466 28.3302C12.6349 25.5152 8.46087 22.7707 4.82476 21.0069C4.68849 20.9434 4.5594 20.8799 4.42314 20.8164L4 20.6188L4.1793 21.0422C4.23667 21.1762 4.29404 21.3103 4.34425 21.4514C5.52042 24.3722 6.67509 28.0057 7.05519 31.1312C7.06954 31.23 7.07671 31.3358 7.09105 31.4346L7.11974 31.6744L7.37075 31.5616C7.45681 31.5263 7.5357 31.484 7.62176 31.4487C9.93109 30.4539 12.85 29.5438 15.3171 29.0287C18.444 32.1048 20.9757 35.6607 22.8332 39.5834C22.8906 39.7033 22.9408 39.8162 22.9981 39.9362L23.1631 40.2889L23.328 39.9362C23.3854 39.8162 23.4356 39.7033 23.493 39.5834C25.3505 35.6536 27.8821 32.1048 31.009 29.0287C33.4761 29.5438 36.5385 30.3833 38.8478 31.3781C38.9339 31.4134 39.0128 31.4487 39.0988 31.491L39.3499 31.6039L39.3785 31.364C39.3929 31.2652 39.4001 31.1594 39.4144 31.0606C39.8017 27.9352 40.8775 24.3722 42.0536 21.4514C42.111 21.3173 42.1612 21.1762 42.2186 21.0422L42.3979 20.6188L41.9891 20.8164ZM41.1643 21.9523C40.1603 24.6051 39.1777 27.8646 38.812 30.6726C38.7689 30.6585 38.7259 30.6373 38.6901 30.6232C36.5959 29.7554 33.7774 28.9934 31.5684 28.5066C34.1575 26.0585 38.0016 23.575 41.1643 21.9523ZM30.2345 28.8806C27.3371 31.7944 24.9632 35.1174 23.1703 38.7579C21.3773 35.1174 19.0034 31.7944 16.106 28.8806C20.739 28.0128 25.6015 28.0128 30.2345 28.8806ZM14.7649 28.4996C12.5631 28.9864 9.88089 29.8119 7.78672 30.6867C7.74369 30.7008 7.70783 30.722 7.6648 30.7361C7.29903 27.9281 6.24478 24.6051 5.24072 21.9523C8.41066 23.575 12.183 26.0585 14.7649 28.4996Z" fill="#71643C"/>
<path d="M33.3123 25.1624C33.2549 25.0989 33.1975 25.0425 33.1402 24.979C31.089 22.8342 29.2961 20.4354 27.8258 17.832C27.7828 17.7544 27.7398 17.6839 27.6968 17.6062C25.5667 13.7823 24.1324 9.53502 23.5443 5.02671L23.1355 2L22.7195 5.02671C22.1386 9.51386 20.7114 13.747 18.5957 17.5639C18.5527 17.6415 18.5097 17.7121 18.4666 17.7897C16.9892 20.4072 15.1963 22.8271 13.1236 24.9931C13.0663 25.0496 13.0161 25.106 12.9587 25.1624H12.9443C12.9515 25.1695 12.9515 25.1695 12.9587 25.1765C13.0232 25.2259 13.0878 25.2753 13.1595 25.3318C13.5396 25.6281 13.9054 25.9244 14.2711 26.2348C14.3428 26.2913 14.4146 26.3548 14.4791 26.4112C14.8879 26.764 15.2967 27.1238 15.6911 27.4977C15.7629 27.5612 15.8346 27.6318 15.8991 27.6953C15.9995 27.6741 16.0999 27.6529 16.2003 27.6388C18.4451 27.2085 20.7616 26.9898 23.1355 26.9898C25.5022 26.9898 27.8187 27.2155 30.0563 27.6388C30.1567 27.66 30.2571 27.6812 30.3575 27.6953C30.4292 27.6318 30.4938 27.5612 30.5655 27.4977C30.9671 27.1238 31.3831 26.7499 31.799 26.3901C31.8707 26.3336 31.9425 26.2701 32.007 26.2137C32.3728 25.9103 32.7385 25.6069 33.1115 25.3177C33.1832 25.2683 33.2477 25.2189 33.3123 25.1624C33.3195 25.1695 33.3195 25.1695 33.3123 25.1624ZM19.0619 18.0578C19.0977 17.9943 19.1336 17.9308 19.1695 17.8673C21.1274 14.3397 22.4542 10.558 23.1355 6.60709C23.824 10.5721 25.1651 14.3679 27.1374 17.9096C27.1804 17.9872 27.2234 18.0648 27.2664 18.1424C28.6793 20.64 30.3934 22.9824 32.3656 25.0919C32.1074 25.2965 31.8421 25.5152 31.591 25.7269C31.5193 25.7904 31.4476 25.8468 31.3759 25.9103C30.9599 26.2701 30.544 26.637 30.1495 27.0039C27.8474 26.5664 25.4878 26.3477 23.1283 26.3477C20.7688 26.3477 18.4021 26.5664 16.0999 27.0039C15.7127 26.644 15.311 26.2842 14.9022 25.9315C14.8305 25.868 14.7588 25.8115 14.6871 25.748C14.4289 25.5293 14.1635 25.3177 13.8982 25.106C15.8848 22.9753 17.6132 20.6188 19.0332 18.0931L19.0619 18.0578Z" fill="#71643C"/>
</svg>
