<svg width="17" height="17" viewBox="0 0 17 17" fill="none" xmlns="http://www.w3.org/2000/svg">
<path fill-rule="evenodd" clip-rule="evenodd" d="M9.38546 2.83337C9.38546 2.53997 9.62332 2.30212 9.91671 2.30212L14.1666 2.30213C14.46 2.30213 14.6979 2.53998 14.6979 2.83337L14.698 7.08337C14.698 7.37677 14.4602 7.61462 14.1667 7.61462C13.8733 7.61462 13.6355 7.37677 13.6355 7.08337V4.11592L7.459 10.2923C7.25153 10.4998 6.91515 10.4998 6.70768 10.2924C6.50022 10.0849 6.50022 9.74855 6.70768 9.54108L12.8841 3.36463L9.91671 3.36462C9.62332 3.36462 9.38546 3.12677 9.38546 2.83337ZM2.30212 2.83338C2.30212 2.53998 2.53998 2.30213 2.83337 2.30213H7.08337C7.37677 2.30213 7.61462 2.53998 7.61462 2.83338C7.61462 3.12679 7.37677 3.36463 7.08337 3.36463H3.36462V13.6355H13.6355V9.91671C13.6355 9.62332 13.8733 9.38546 14.1667 9.38546C14.4601 9.38546 14.698 9.62332 14.698 9.91671V14.1667C14.698 14.4601 14.4601 14.698 14.1667 14.698H2.83337C2.53998 14.698 2.30212 14.4601 2.30212 14.1667V2.83338Z" fill="white"/>
</svg>
