<svg width="11" height="11" viewBox="0 0 11 11" fill="none" xmlns="http://www.w3.org/2000/svg">
<path fill-rule="evenodd" clip-rule="evenodd" d="M6.07296 1.83331C6.07296 1.64346 6.22687 1.48956 6.41671 1.48956L9.16666 1.48957C9.3565 1.48957 9.51041 1.64347 9.51041 1.83331L9.51046 4.58331C9.51046 4.77315 9.3566 4.92706 9.16671 4.92706C8.97687 4.92706 8.82296 4.77315 8.82296 4.58331V2.66319L4.82643 6.6597C4.69218 6.79395 4.47452 6.79395 4.34028 6.65975C4.20604 6.5255 4.20604 6.30784 4.34028 6.17359L8.3368 2.17707L6.41671 2.17706C6.22687 2.17706 6.07296 2.02316 6.07296 1.83331ZM1.48962 1.83332C1.48962 1.64347 1.64353 1.48957 1.83337 1.48957H4.58337C4.77322 1.48957 4.92712 1.64347 4.92712 1.83332C4.92712 2.02317 4.77322 2.17707 4.58337 2.17707H2.17712V8.8229H8.82296V6.41665C8.82296 6.22681 8.97687 6.0729 9.16671 6.0729C9.35655 6.0729 9.51046 6.22681 9.51046 6.41665V9.16665C9.51046 9.35649 9.35655 9.5104 9.16671 9.5104H1.83337C1.64353 9.5104 1.48962 9.35649 1.48962 9.16665V1.83332Z" fill="#273A2F"/>
</svg>
