<svg width="51" height="51" viewBox="0 0 51 51" fill="none" xmlns="http://www.w3.org/2000/svg">
<g clip-path="url(#clip0_1_35)">
<path d="M34.3652 3.89473L47.0953 16.7742C52.3148 22.0535 52.3148 30.5402 47.0953 35.8195L35.9391 47.1053C35.0127 48.0416 33.4986 48.0516 32.5623 47.1252C31.626 46.1988 31.616 44.6848 32.5424 43.7484L43.6887 32.4627C47.0654 29.0461 47.0654 23.5576 43.6887 20.141L30.9686 7.26152C30.0422 6.3252 30.0521 4.81113 30.9885 3.88477C31.9248 2.9584 33.4389 2.96836 34.3652 3.90469V3.89473ZM0 22.8604V7.96875C0 5.3291 2.1416 3.1875 4.78125 3.1875H19.6728C21.3662 3.1875 22.9898 3.85488 24.1852 5.0502L40.9195 21.7846C43.4098 24.2748 43.4098 28.309 40.9195 30.7992L27.6217 44.0971C25.1314 46.5873 21.0973 46.5873 18.607 44.0971L1.87266 27.3627C0.667383 26.1674 0 24.5537 0 22.8604ZM14.3437 14.3438C14.3437 13.4984 14.0079 12.6876 13.4102 12.0898C12.8124 11.4921 12.0016 11.1562 11.1562 11.1562C10.3109 11.1562 9.50012 11.4921 8.90235 12.0898C8.30457 12.6876 7.96875 13.4984 7.96875 14.3438C7.96875 15.1891 8.30457 15.9999 8.90235 16.5977C9.50012 17.1954 10.3109 17.5312 11.1562 17.5312C12.0016 17.5312 12.8124 17.1954 13.4102 16.5977C14.0079 15.9999 14.3437 15.1891 14.3437 14.3438Z" fill="#273A2F" fill-opacity="0.65"/>
</g>
<defs>
<clipPath id="clip0_1_35">
<rect width="51" height="51" fill="white"/>
</clipPath>
</defs>
</svg>
